<?xml version="1.0" encoding="iso-8859-1"?>
<!-- Uploaded to: SVG Repo, www.svgrepo.com, Generator: SVG Repo Mixer Tools -->
<svg height="800px" width="800px" version="1.1" id="Layer_1" xmlns="http://www.w3.org/2000/svg" xmlns:xlink="http://www.w3.org/1999/xlink" 
	 viewBox="0 0 301.184 301.184" xml:space="preserve">
<g>
	<g>
		<g>
			<g id="XMLID_32_">
				<g>
					<path style="fill:#FEDE94;" d="M58.474,100.128c-3.781-2.691-9.036-1.858-11.759,1.826
						c-1.089,1.442-26.273,36.238-4.966,87.856c1.314,3.204,4.486,5.159,7.818,5.159c1.057,0,2.115-0.192,3.14-0.609
						c4.326-1.698,6.408-6.472,4.678-10.67c-17.654-42.774,2.083-70.874,2.98-72.156C63.088,107.881,62.223,102.755,58.474,100.128z
						 M73.662,76.674c-3.749-2.659-9.036-1.858-11.759,1.794l-3.749,4.998c-2.723,3.653-1.922,8.779,1.858,11.439
						c1.474,1.089,3.236,1.602,4.934,1.602c2.627,0,5.191-1.186,6.825-3.364l3.717-4.998C78.244,84.492,77.411,79.365,73.662,76.674
						z M16.853,150.592c0-47.484,33.547-86.126,74.783-86.126c41.269,0,74.815,38.641,74.815,86.126c0,2.339-0.128,4.678-0.32,6.985
						l-8.875-3.012c-3.557-1.218-7.401,0.096-9.548,2.916c-1.282,1.442-2.115,3.332-2.115,5.415c0,13.105,2.691,25.504,7.369,36.655
						c-13.489,22.397-35.886,37.135-61.326,37.135C50.4,236.686,16.853,198.076,16.853,150.592z"/>
					<path style="fill:#FEDE94;" d="M257.16,182.953l26.338-8.971c-4.614,33.579-29.766,59.34-60.109,59.34
						s-55.495-25.761-60.109-59.34l26.338,8.971c0.897,0.288,1.826,0.449,2.788,0.449c1.378,0,2.756-0.32,4.005-0.993l26.978-14.29
						l26.946,14.29C252.45,183.53,254.917,183.722,257.16,182.953z"/>
					<path style="fill:#2D213F;" d="M73.662,76.674c3.749,2.691,4.582,7.818,1.826,11.471l-3.717,4.998
						c-1.634,2.179-4.197,3.364-6.825,3.364c-1.698,0-3.46-0.513-4.934-1.602c-3.781-2.659-4.582-7.786-1.858-11.439l3.749-4.998
						C64.626,74.815,69.913,74.014,73.662,76.674z"/>
					<path style="fill:#2D213F;" d="M91.637,64.466c-41.237,0-74.783,38.641-74.783,86.126s33.547,86.094,74.783,86.094
						c25.44,0,47.837-14.739,61.326-37.135c-4.678-11.15-7.369-23.55-7.369-36.655c0-2.083,0.833-3.973,2.115-5.415
						c2.147-2.82,5.992-4.133,9.548-2.916l8.875,3.012c0.192-2.307,0.32-4.646,0.32-6.985
						C166.452,103.107,132.905,64.466,91.637,64.466z M299.069,157.513c1.314,1.442,2.115,3.3,2.115,5.383
						c0,47.869-34.892,86.831-77.795,86.831c-24.928,0-47.132-13.233-61.358-33.675c-16.821,22.621-42.102,37.071-70.394,37.071
						C41.108,253.122,0,207.112,0,150.592C0,94.04,41.108,48.061,91.637,48.061s91.669,45.979,91.669,102.531
						c0,4.261-0.32,8.427-0.801,12.56l9.132,3.108l27.715-14.675c2.499-1.346,5.543-1.346,8.042,0l27.715,14.675l34.412-11.695
						C293.077,153.347,296.922,154.661,299.069,157.513z M283.497,173.982l-26.338,8.971c-2.243,0.769-4.71,0.577-6.825-0.545
						l-26.946-14.29l-26.978,14.29c-1.25,0.673-2.627,0.993-4.005,0.993c-0.961,0-1.89-0.16-2.788-0.449l-26.338-8.971
						c4.614,33.579,29.766,59.34,60.109,59.34C253.731,233.321,278.883,207.56,283.497,173.982z"/>
					<path style="fill:#2D213F;" d="M58.474,100.128c3.749,2.627,4.614,7.754,1.89,11.407c-0.897,1.282-20.634,29.381-2.98,72.156
						c1.73,4.197-0.352,8.971-4.678,10.67c-1.025,0.417-2.083,0.609-3.14,0.609c-3.332,0-6.504-1.954-7.818-5.159
						c-21.307-51.618,3.877-86.414,4.966-87.856C49.439,98.269,54.694,97.436,58.474,100.128z"/>
				</g>
			</g>
		</g>
		<path style="fill:#F4CE6E;" d="M55.072,192.908c-0.692,0.586-1.467,1.096-2.365,1.451c-1.025,0.417-2.083,0.609-3.14,0.609
			c-3.332,0-6.504-1.954-7.818-5.159c-19.728-47.792,0.388-81.143,4.345-86.972c1.349-9.91,2.941-18.302,4.12-23.909
			c-20.096,15.46-33.361,41.81-33.361,71.662c0,47.484,33.547,86.094,74.783,86.094c25.44,0,47.837-14.739,61.326-37.135
			c-0.811-1.929-1.535-3.909-2.224-5.908C96.622,222.53,68.679,214.722,55.072,192.908z"/>
		<path style="fill:#F4CE6E;" d="M268.162,210.473c-60.679,27.581-92.319-17.296-102.226-35.588l-2.656-0.904
			c4.614,33.579,29.766,59.34,60.109,59.34C241.12,233.321,257.038,224.484,268.162,210.473z"/>
	</g>
</g>
</svg>