<?xml version="1.0" encoding="utf-8"?>
<!-- Uploaded to: SVG Repo, www.svgrepo.com, Generator: SVG Repo Mixer Tools -->
<svg width="800px" height="800px" viewBox="0 0 1024 1024" class="icon"  version="1.1" xmlns="http://www.w3.org/2000/svg"><path d="M511.6802 31.948032a31.980012 31.980012 0 1 0-63.960025 0c0 56.476702 27.470831 95.940037 27.470831 95.940038S511.6802 179.37589 511.6802 223.828107c0 44.963898-21.458588 78.223111-21.458589 78.223111-13.527545 17.716927-13.239725 28.238351-0.89544 40.902436 14.359026 14.774766 36.840974 9.785884 51.32792-13.719425 0 0 34.986134-49.473079 34.986134-105.438102 0-49.473079-31.980012-95.940037-31.980013-95.940037s-31.980012-47.938039-31.980012-95.908058zM319.800125 31.948032a31.980012 31.980012 0 1 0-63.960025 0c0 56.476702 27.470831 95.940037 27.470831 95.940038S319.800125 179.37589 319.800125 223.828107c0 44.963898-21.458588 78.223111-21.458588 78.223111-13.527545 17.716927-13.239725 28.238351-0.895441 40.902436 14.359026 14.774766 36.840974 9.785884 51.32792-13.719425 0 0 34.986134-49.473079 34.986134-105.438102 0-49.473079-31.980012-95.940037-31.980013-95.940037s-31.980012-47.938039-31.980012-95.908058zM735.540287 127.88807s-31.980012-47.970019-31.980012-95.940038a31.980012 31.980012 0 1 0-63.960025 0c0 56.476702 27.470831 95.940037 27.470831 95.940038S703.560275 179.37589 703.560275 223.828107c0 44.963898-21.458588 78.223111-21.458589 78.223111-13.527545 17.716927-13.239725 28.238351-0.89544 40.902436 14.359026 14.774766 36.840974 9.785884 51.32792-13.719425 0 0 34.986134-49.473079 34.986134-105.438102 0-49.409119-31.980012-95.908057-31.980013-95.908057z" fill="#E6E6E6" /><path d="M831.608245 479.668207c-88.328795 0-159.900062 71.571268-159.900063 159.900063s71.571268 159.900062 159.900063 159.900062 159.900062-71.571268 159.900062-159.900062-71.571268-159.900062-159.900062-159.900063z m0 287.820113a127.92005 127.92005 0 1 1 0-255.8401 127.92005 127.92005 0 0 1 0 255.8401z" fill="#EDD87E" /><path d="M831.608245 511.64822a127.92005 127.92005 0 1 0 0 255.8401 127.92005 127.92005 0 0 0 0-255.8401z m0 223.860087a95.940037 95.940037 0 1 1 0-191.880075 95.940037 95.940037 0 0 1 0 191.880075z" fill="#EACF60" /><path d="M831.608245 543.628232a95.940037 95.940037 0 1 0 0 191.880075 95.940037 95.940037 0 0 0 0-191.880075z m0 159.900063a63.960025 63.960025 0 1 1 0.03198-127.95203 63.960025 63.960025 0 0 1-0.03198 127.95203z" fill="#EDD87E" /><path d="M831.608245 575.608245a63.960025 63.960025 0 1 0 0.03198 127.95203 63.960025 63.960025 0 0 0-0.03198-127.95203z m0 95.940037a31.980012 31.980012 0 1 1 0-63.960025 31.980012 31.980012 0 1 1 0 63.960025z" fill="#EACF60" /><path d="M831.608245 511.64822a127.92005 127.92005 0 1 0 0 255.8401 127.92005 127.92005 0 0 0 0-255.8401z m0 223.860087a95.940037 95.940037 0 1 1 0-191.880075 95.940037 95.940037 0 0 1 0 191.880075z" fill="" /><path d="M831.608245 575.608245a63.960025 63.960025 0 1 0 0.03198 127.95203 63.960025 63.960025 0 0 0-0.03198-127.95203z m0 95.940037a31.980012 31.980012 0 1 1 0-63.960025 31.980012 31.980012 0 1 1 0 63.960025z" fill="" /><path d="M831.608245 639.56827m-31.980013 0a31.980012 31.980012 0 1 0 63.960025 0 31.980012 31.980012 0 1 0-63.960025 0Z" fill="#EDD87E" /><path d="M607.748157 415.708182c-88.328795 0-159.900062 71.571268-159.900062 159.900063s71.571268 159.900062 159.900062 159.900062 159.900062-71.571268 159.900063-159.900062-71.571268-159.900062-159.900063-159.900063z m0 287.820113a127.92005 127.92005 0 1 1 0-255.8401 127.92005 127.92005 0 0 1 0 255.8401z" fill="#EDD87E" /><path d="M607.748157 447.688195a127.92005 127.92005 0 1 0 0 255.8401 127.92005 127.92005 0 0 0 0-255.8401z m0 223.860087a95.940037 95.940037 0 1 1 0-191.880075 95.940037 95.940037 0 0 1 0 191.880075z" fill="#EACF60" /><path d="M607.748157 479.668207a95.940037 95.940037 0 1 0 0 191.880075 95.940037 95.940037 0 0 0 0-191.880075z m0 159.900063a63.960025 63.960025 0 1 1 0.03198-127.95203 63.960025 63.960025 0 0 1-0.03198 127.95203z" fill="#EDD87E" /><path d="M607.748157 511.64822a63.960025 63.960025 0 1 0 0.03198 127.95203 63.960025 63.960025 0 0 0-0.03198-127.95203z m0 95.940037a31.980012 31.980012 0 1 1 0-63.960025 31.980012 31.980012 0 1 1 0 63.960025z" fill="#EACF60" /><path d="M607.748157 447.688195a127.92005 127.92005 0 1 0 0 255.8401 127.92005 127.92005 0 0 0 0-255.8401z m0 223.860087a95.940037 95.940037 0 1 1 0-191.880075 95.940037 95.940037 0 0 1 0 191.880075z" fill="" /><path d="M607.748157 511.64822a63.960025 63.960025 0 1 0 0.03198 127.95203 63.960025 63.960025 0 0 0-0.03198-127.95203z m0 95.940037a31.980012 31.980012 0 1 1 0-63.960025 31.980012 31.980012 0 1 1 0 63.960025z" fill="" /><path d="M607.748157 575.608245m-31.980012 0a31.980012 31.980012 0 1 0 63.960025 0 31.980012 31.980012 0 1 0-63.960025 0Z" fill="#EDD87E" /><path d="M383.88807 511.64822c-88.328795 0-159.900062 71.571268-159.900063 159.900062s71.571268 159.900062 159.900063 159.900063 159.900062-71.571268 159.900062-159.900063-71.571268-159.900062-159.900062-159.900062z m0 287.820112a127.92005 127.92005 0 1 1 0-255.8401 127.92005 127.92005 0 0 1 0 255.8401z" fill="#EDD87E" /><path d="M383.88807 543.628232a127.92005 127.92005 0 1 0 0 255.8401 127.92005 127.92005 0 0 0 0-255.8401z m0 223.860088a95.940037 95.940037 0 1 1 0-191.880075 95.940037 95.940037 0 0 1 0 191.880075z" fill="#EACF60" /><path d="M383.88807 575.608245a95.940037 95.940037 0 1 0 0 191.880075 95.940037 95.940037 0 0 0 0-191.880075z m0 159.900062a63.960025 63.960025 0 1 1 0.03198-127.95203 63.960025 63.960025 0 0 1-0.03198 127.95203z" fill="#EDD87E" /><path d="M383.88807 607.588257a63.960025 63.960025 0 1 0 0.03198 127.95203 63.960025 63.960025 0 0 0-0.03198-127.95203z m0 95.940038a31.980012 31.980012 0 1 1 0-63.960025 31.980012 31.980012 0 1 1 0 63.960025z" fill="#EACF60" /><path d="M383.88807 543.628232a127.92005 127.92005 0 1 0 0 255.8401 127.92005 127.92005 0 0 0 0-255.8401z m0 223.860088a95.940037 95.940037 0 1 1 0-191.880075 95.940037 95.940037 0 0 1 0 191.880075z" fill="" /><path d="M383.88807 607.588257a63.960025 63.960025 0 1 0 0.03198 127.95203 63.960025 63.960025 0 0 0-0.03198-127.95203z m0 95.940038a31.980012 31.980012 0 1 1 0-63.960025 31.980012 31.980012 0 1 1 0 63.960025z" fill="" /><path d="M383.88807 671.548282m-31.980013 0a31.980012 31.980012 0 1 0 63.960025 0 31.980012 31.980012 0 1 0-63.960025 0Z" fill="#EDD87E" /><path d="M192.007995 479.668207c-88.328795 0-159.900062 71.571268-159.900062 159.900063s71.571268 159.900062 159.900062 159.900062 159.900062-71.571268 159.900062-159.900062-71.571268-159.900062-159.900062-159.900063z m0 287.820113a127.92005 127.92005 0 1 1 0-255.8401 127.92005 127.92005 0 0 1 0 255.8401z" fill="#EDD87E" /><path d="M192.007995 511.64822a127.92005 127.92005 0 1 0 0 255.8401 127.92005 127.92005 0 0 0 0-255.8401z m0 223.860087a95.940037 95.940037 0 1 1 0-191.880075 95.940037 95.940037 0 0 1 0 191.880075z" fill="#EACF60" /><path d="M192.007995 543.628232a95.940037 95.940037 0 1 0 0 191.880075 95.940037 95.940037 0 0 0 0-191.880075z m0 159.900063a63.960025 63.960025 0 1 1 0.03198-127.95203 63.960025 63.960025 0 0 1-0.03198 127.95203z" fill="#EDD87E" /><path d="M192.007995 575.608245a63.960025 63.960025 0 1 0 0.03198 127.95203 63.960025 63.960025 0 0 0-0.03198-127.95203z m0 95.940037a31.980012 31.980012 0 1 1 0-63.960025 31.980012 31.980012 0 1 1 0 63.960025z" fill="#EACF60" /><path d="M192.007995 511.64822a127.92005 127.92005 0 1 0 0 255.8401 127.92005 127.92005 0 0 0 0-255.8401z m0 223.860087a95.940037 95.940037 0 1 1 0-191.880075 95.940037 95.940037 0 0 1 0 191.880075z" fill="" /><path d="M192.007995 575.608245a63.960025 63.960025 0 1 0 0.03198 127.95203 63.960025 63.960025 0 0 0-0.03198-127.95203z m0 95.940037a31.980012 31.980012 0 1 1 0-63.960025 31.980012 31.980012 0 1 1 0 63.960025z" fill="" /><path d="M192.007995 639.56827m-31.980012 0a31.980012 31.980012 0 1 0 63.960024 0 31.980012 31.980012 0 1 0-63.960024 0Z" fill="#EDD87E" /><path d="M1023.3604 639.56827H0c22.929669 183.405372 161.019363 284.334291 319.800125 326.931668v56.828482h383.76015v-56.828482c158.780762-42.597377 296.870456-143.494316 319.800125-326.931668z" fill="#60B748" /><path d="M511.6802 959.368395a700.714054 700.714054 0 0 1-458.625359-170.261587C112.057964 880.761524 211.068082 937.334166 319.800125 966.499938v56.828482h383.76015v-56.828482c108.732042-29.165771 207.742161-85.738413 266.745284-177.39313A700.554154 700.554154 0 0 1 511.6802 959.368395z" fill="" /><path d="M988.150406 607.588257H35.209994a159.996002 159.996002 0 0 0-3.229982 31.980013h959.400375c0-10.937164-1.1193-21.618488-3.229981-31.980013z" fill="" /></svg>